<svg width="24" height="26" viewBox="0 0 24 26" fill="none" xmlns="http://www.w3.org/2000/svg">
<path d="M24 5.95833V21.6667C24 24.05 22.0364 26 19.6364 26H11.6727C10.4945 26 9.38182 25.5342 8.56364 24.7108L0 16.0658C0 16.0658 1.37455 14.7333 1.41818 14.7117C1.65818 14.5058 1.95273 14.3975 2.28 14.3975C2.52 14.3975 2.73818 14.4625 2.93455 14.5708C2.97818 14.5817 7.63636 17.2358 7.63636 17.2358V4.33333C7.63636 3.43417 8.36727 2.70833 9.27273 2.70833C10.1782 2.70833 10.9091 3.43417 10.9091 4.33333V11.9167H12V1.625C12 0.725833 12.7309 0 13.6364 0C14.5418 0 15.2727 0.725833 15.2727 1.625V11.9167H16.3636V2.70833C16.3636 1.80917 17.0945 1.08333 18 1.08333C18.9055 1.08333 19.6364 1.80917 19.6364 2.70833V11.9167H20.7273V5.95833C20.7273 5.05917 21.4582 4.33333 22.3636 4.33333C23.2691 4.33333 24 5.05917 24 5.95833Z" fill="black"/>
</svg>
